<svg xmlns="http://www.w3.org/2000/svg" viewBox="0 0 64 64" role="img" aria-labelledby="title desc">
  <title id="title">CatGraph logo</title>
  <desc id="desc">A colorful line logo combining a cat head and graph nodes.</desc>
  <defs>
    <linearGradient id="catgraph-outline" x1="10" y1="10" x2="54" y2="54" gradientUnits="userSpaceOnUse">
      <stop offset="0" stop-color="#2f80ed" />
      <stop offset="0.52" stop-color="#19a7a5" />
      <stop offset="1" stop-color="#f2b84b" />
    </linearGradient>
  </defs>
  <path
    fill="none"
    stroke="url(#catgraph-outline)"
    stroke-linecap="round"
    stroke-linejoin="round"
    stroke-width="4"
    d="M18 29.5 14.7 15.8c-.3-1.2 1.1-2 2-1.2l10.4 8.6a26.3 26.3 0 0 1 9.8 0l10.4-8.6c.9-.8 2.3 0 2 1.2L46 29.5c3.9 3 6.2 7.3 6.2 12.1C52.2 51.9 44 58 32 58s-20.2-6.1-20.2-16.4c0-4.8 2.3-9.1 6.2-12.1Z"
  />
  <path
    fill="none"
    stroke="#36b6b2"
    stroke-linecap="round"
    stroke-linejoin="round"
    stroke-width="3.2"
    d="M22 41 32 32l10 9"
  />
  <path
    fill="none"
    stroke="#2f80ed"
    stroke-linecap="round"
    stroke-linejoin="round"
    stroke-width="3.2"
    d="M23.5 31.5 21 35.5"
  />
  <path
    fill="none"
    stroke="#2f80ed"
    stroke-linecap="round"
    stroke-width="3.2"
    d="M40.5 31.5 43 35.5"
  />
  <circle cx="22" cy="41" r="3.9" fill="#ffffff" stroke="#2f80ed" stroke-width="3" />
  <circle cx="32" cy="32" r="4.2" fill="#ffffff" stroke="#36b6b2" stroke-width="3" />
  <circle cx="42" cy="41" r="3.9" fill="#ffffff" stroke="#f2b84b" stroke-width="3" />
</svg>
