<svg xmlns="http://www.w3.org/2000/svg" viewBox="0 0 68 64" width="68" height="64" fill="none" stroke="#1B2A4A" stroke-linecap="round" stroke-linejoin="round" style="overflow:visible">
  <g transform="translate(32 0) scale(1.18 1) translate(-32 0)">
    <path vector-effect="non-scaling-stroke" fill="none" stroke-width="4" d="M 13 25 C 16 22 13 14 18 13 C 22 13 24 15 24 17 Q 32 15 40 17 C 40 15 42 13 46 13 C 51 13 48 22 51 25 C 54 28 55 32 51 36 C 55 40 54 46 49 47 C 48 52 41 53 38 50 C 35 53 29 53 26 50 C 23 53 16 52 15 47 C 10 46 9 40 13 36 C 10 32 10 28 13 25 Z"></path>
    <path vector-effect="non-scaling-stroke" stroke-width="3" d="M 28 39 Q 30 41 32 39 Q 34 41 36 39"></path>
    <path vector-effect="non-scaling-stroke" stroke-width="3" d="M 51 46 Q 60 46 60 38"></path>
  </g>
  <circle cx="23.74" cy="32" r="1.7" fill="#1B2A4A" stroke="none"></circle>
  <circle cx="40.26" cy="32" r="1.7" fill="#1B2A4A" stroke="none"></circle>
</svg>